<?xml version="1.0" encoding="UTF-8"?>
<svg id="Layer_1" xmlns="http://www.w3.org/2000/svg" version="1.1" xmlns:xlink="http://www.w3.org/1999/xlink" viewBox="0 0 1644.4 800">
  <!-- Generator: Adobe Illustrator 29.8.1, SVG Export Plug-In . SVG Version: 2.1.1 Build 2)  -->
  <defs>
    <style>
      .st0 {
        font-family: Chiller-Regular, Chiller;
        font-size: 500px;
      }

      .st1 {
        fill: url(#linear-gradient);
      }
    </style>
    <linearGradient id="linear-gradient" x1="22.2" y1="400" x2="777.8" y2="400" gradientUnits="userSpaceOnUse">
      <stop offset="0" stop-color="#2ad8ff"/>
      <stop offset="0" stop-color="#29d7fe"/>
      <stop offset="0" stop-color="#27cef2"/>
      <stop offset="0" stop-color="#26c8eb"/>
      <stop offset="0" stop-color="#26c7ea"/>
      <stop offset="0" stop-color="#28cff4"/>
      <stop offset="1" stop-color="#000"/>
    </linearGradient>
  </defs>
  <path class="st1" d="M148.2,667.1l10.6-10.6c88.2-11.9,177.1,26,230.4,96.9v13.6c0,6,4.8,10.8,10.8,10.8s10.8-4.8,10.8-10.8v-14.2c53.6-71.5,141.6-108.4,230.1-96.7l10.6,10.6c1.3,1.3,2.9,2.1,4.6,2.6h.6c3.5,1,7.3.2,10.1-2.6s3.5-6.6,2.7-10.1v-.6c-.6-1.7-1.5-3.3-2.7-4.6l-10.6-10.6c-11.7-88.5,25.2-176.5,96.7-230.1h14.1c6,0,10.8-4.8,10.8-10.8s-4.8-10.8-10.8-10.8h-13.6c-71-53.3-108.8-142.2-96.9-230.4l10.6-10.6c4.2-4.2,4.2-11,0-15.2,0,0,0,0,0,0-1.4-1.4-3.2-2.3-5.1-2.7-3.6-1-7.5,0-10.1,2.7l-10.6,10.6c-88.2,11.9-177.1-26-230.4-96.9v-13.6c0-6-4.8-10.8-10.8-10.8s-10.8,4.8-10.8,10.8v14.2c-53.6,71.5-141.6,108.4-230.1,96.7l-10.6-10.6c-1.3-1.2-2.8-2.1-4.6-2.6h-.6c-3.6-1-7.4,0-10.1,2.6-2.6,2.7-3.6,6.5-2.7,10.1v.6c.6,1.7,1.5,3.3,2.7,4.6l10.6,10.6c11.7,88.5-25.2,176.5-96.7,230.1h-14.1c-6,0-10.8,4.8-10.8,10.8s4.8,10.8,10.8,10.8h13.6c71,53.3,108.8,142.2,96.9,230.4l-10.6,10.6c-2.6,2.7-3.6,6.5-2.7,10.1.4,1.9,1.2,3.7,2.7,5.1,4.2,4.2,11,4.2,15.3,0h0ZM167.3,182.5l49,49c2.3,30.7-2.7,61.5-14.7,89.8-11,25.8-27.4,48.9-48,67.8h-73.4c2.7-2.4,6-5.3,8.5-7.8,52.5-52.6,80.9-124.6,78.4-198.9h0ZM436.1,364.1c1.2,13.1,5.8,25.6,13.3,36.4-3.6,5.1-6.5,10.6-8.7,16.3-2.2,6.3-3.6,12.9-4.2,19.6-6.6.6-13.1,1.8-19.5,4.1-5.7,2.2-11.2,5.1-16.2,8.6-5.3-3.8-11.1-7-17.2-9.3-6.3-2.2-12.9-3.6-19.5-4.2-1.2-12.9-5.6-25.3-13-35.9,3.5-5.1,6.6-10.4,8.7-16.3,2.4-6.4,3.5-12.9,4.1-19.5,6.6-.6,13.2-1.8,19.6-4.2,5.9-2.2,11.2-5.2,16.3-8.7,10.7,7.4,23.2,11.8,36.2,13ZM332.3,410.8c1.3,1.7,2.6,3.4,3.7,5.3,3.6,6.4,5.8,13.4,6.6,20.6.2,1.8,0,3.7,0,5.5l-34.3,34.3c-2-10.1-4.8-19.9-8.3-29.6-4.7-12.6-10.7-24.7-17.8-36.2h50.2ZM358.1,457.1c1.6,0,3.2-.2,4.9,0,4.4.5,8.8,1.3,13.1,2.9,3,1.1,5.8,2.6,8.5,4.1,1.6,1,3.1,2.2,4.6,3.3v50.4c-11.4-7.1-23.5-13.1-36.2-17.8-9.6-3.5-19.5-6.3-29.6-8.3l34.6-34.6h0ZM410.8,518.7v-50c2-1.5,4-3.1,6.1-4.3,6.3-3.6,13.3-5.8,20.6-6.6,1.7-.2,3.4,0,5.1,0l34.2,34.2c-10.1,2-19.9,4.8-29.6,8.3-12.7,4.9-24.9,11.1-36.5,18.3ZM458,442.7c0-1.8-.2-3.5,0-5.3.5-4.4,1.3-8.8,2.9-13.1,1-2.7,2.3-5.1,3.7-7.6,1.2-2.1,2.7-4,4.1-5.9h50c-7.2,11.6-13.4,23.8-18.3,36.5-3.5,9.6-6.3,19.5-8.3,29.6l-34.1-34.1ZM467.9,389.2c-1.2-1.6-2.5-3.2-3.5-5-3.7-6.5-6-13.7-6.8-21.1-.2-1.8,0-3.6,0-5.4l34.2-34.2c2.1,10,4.7,19.9,8.3,29.6,4.8,12.8,10.8,24.8,17.8,36.2h-50,0ZM442.1,342.6c-1.7,0-3.4.2-5,0-7.3-.8-14.4-3-20.8-6.6-1.9-1.1-3.6-2.5-5.4-3.8v-50.1c11.3,7,23.4,13.1,36.2,17.8,9.7,3.6,19.6,6.2,29.6,8.3l-34.4,34.4h0ZM389.2,281.3v50.7c-1.8,1.4-3.6,2.8-5.6,3.9-2.4,1.4-4.9,2.6-7.4,3.6-4.2,1.5-8.6,2.5-13.1,2.9-1.8.2-3.5,0-5.3,0l-34.6-34.6c10.1-2,19.9-4.8,29.6-8.3,12.7-4.9,24.9-11,36.5-18.3h0ZM342.5,357.8c0,1.7.2,3.4,0,5.1-.8,7.3-3,14.3-6.6,20.6-1.1,2-2.6,3.8-4,5.7h-50.7c6.9-11.2,13.6-23.9,18.3-36.5,3.6-9.7,6.2-19.6,8.3-29.6l34.6,34.6ZM279.7,454.4c5,13.3,8.1,27,9.8,40.8l-13.8,13.8-37.2,37.2c-.9-26.2-6.5-52.1-16.7-76.2-9.1-21.6-21.8-41.6-37.4-59.2h71.6c9.8,13.4,17.7,28.1,23.6,43.7ZM291,524.2l13.8-13.8c13.9,1.7,27.6,5,40.8,9.8,15.6,5.8,30.3,13.7,43.7,23.6v71.6c-17.6-15.6-37.5-28.2-59.2-37.4-24.2-10.2-50-15.8-76.2-16.7l37.2-37.2h0ZM410.8,616.2v-71.5c13.5-9.9,28.3-18.1,44-24.1,13.2-4.8,26.8-8.1,40.8-9.8l51,51c-26.2.9-52.1,6.5-76.2,16.7-21.7,9.4-41.8,22.1-59.5,37.8h0ZM524.6,509.3l-13.8-13.8c1.7-13.9,5-27.6,9.8-40.8,5.8-15.6,14.6-30.8,24.1-44h71.5c-15.7,17.7-28.4,37.8-37.8,59.5-10.2,24.2-15.8,50-16.7,76.2l-37.2-37.2ZM543.9,389.2c-9.8-13.4-17.7-28.1-23.6-43.7-4.8-13.2-8.1-26.8-9.8-40.8l13.8-13.8,37.2-37.2c.9,26.2,6.5,52.1,16.7,76.2,9.3,22,22,41.8,37.4,59.2h-71.6ZM509,275.7l-13.8,13.8c-13.9-1.7-27.6-5-40.8-9.8-15.6-5.8-30.3-13.7-43.7-23.6v-71.7c17.6,15.6,37.5,28.2,59.2,37.4,24.2,10.2,50,15.8,76.2,16.7l-37.2,37.2ZM389.2,183.7v71.5c-13.5,9.9-28.3,18.1-44,24.1-13.3,5-27,8.1-40.8,9.8l-13.8-13.8-37.2-37.2c26.2-.9,52.1-6.5,76.2-16.7,21.7-9.4,41.8-22.1,59.5-37.8ZM289.2,304.4c-1.7,13.9-5,27.6-9.8,40.8-5.8,15.6-14.6,30.8-24.1,44h-71.5c15.7-17.7,28.4-37.8,37.8-59.5,10.2-24.2,15.8-50,16.7-76.2l51,51h0ZM89.1,418.2c-2.6-2.6-5.5-5-8.2-7.5h73.4c43.8,40.1,66.8,98.1,62.3,157.3l-21.8,21.7-27.3,27.3c2.4-74.3-26-146.3-78.4-198.9ZM381.8,710.9c-52.6-52.5-124.6-80.9-198.9-78.4l27.3-27.3,21.7-21.7c59.2-4.4,117.2,18.5,157.3,62.3v73.4c-2.5-2.8-4.8-5.7-7.4-8.3h0ZM418.6,711.2c-2.5,2.5-5.3,5.9-7.8,8.5v-73.4c19-20.6,42.1-37,67.8-48,28.3-12,59.1-17,89.8-14.7l49,49c-74.3-2.4-146.3,26-198.9,78.4h0ZM632.8,617.5l-27.3-27.3-21.7-21.7c-2.3-30.7,2.7-61.5,14.7-89.8,11-25.8,27.4-48.9,48-67.8h73.4c-2.7,2.4-6,5.3-8.5,7.8-52.5,52.6-80.9,124.6-78.4,198.9h0ZM710.9,381.7c2.6,2.6,5.5,5,8.2,7.5h-73.4c-43.8-40.1-66.8-98.1-62.3-157.3l21.7-21.7,27.3-27.3c-2.4,74.3,26,146.2,78.5,198.9h0ZM418.3,89.1c52.6,52.5,124.6,80.9,198.9,78.4l-27.3,27.3-21.7,21.7c-59.2,4.4-117.2-18.5-157.3-62.3v-73.4c2.5,2.7,4.8,5.6,7.4,8.2h0ZM381.4,88.8c2.5-2.5,5.3-5.9,7.8-8.5v73.4c-19,20.6-42.1,37-67.8,48-28.3,12-59.1,17-89.8,14.7l-21.7-21.7-27.3-27.3c74.3,2.4,146.3-26,198.9-78.4Z"/>
  <text class="st0" transform="translate(791.2 537.3)"><tspan x="0" y="0">G</tspan><tspan x="194.1" y="0">enix</tspan></text>
</svg>